<svg id="Capa_1" enable-background="new 0 0 512 512" height="512" viewBox="0 0 512 512" width="512" xmlns="http://www.w3.org/2000/svg"><g><path d="m185.974 499.882v-397.401c0-6.882-5.384-12.786-12.265-12.912-7.011-.129-12.735 5.516-12.735 12.498v83.216l-27.276-27.276c-4.867-4.867-12.849-5.234-17.803-.456-5.048 4.867-5.103 12.905-.167 17.842l45.246 45.246v65.574l-45.229-45.229c-4.867-4.867-12.849-5.234-17.803-.457-5.048 4.867-5.104 12.905-.167 17.842l63.2 63.199v178.314c0 2.551 2.068 4.618 4.618 4.618h15.763c2.55 0 4.618-2.068 4.618-4.618z" fill="#c6ead0"/><path d="m177.701 9.29c-1.159-1.193-2.694-1.79-4.228-1.79v82.066c.078 0 .156 0 .235.002 6.881.126 12.265 6.03 12.265 12.912v316.644c73.906-6.337 131.916-68.334 131.916-143.882 0-115.748-116.369-241.438-140.188-265.952z" fill="#d0e2e7"/><circle cx="232.372" cy="202.185" fill="#dd636e" r="14.129"/><circle cx="261.197" cy="288.46" fill="#dd636e" r="14.129"/><path d="m169.246 9.29c-10.157 10.453-37.142 39.304-64.758 77.936-.783 1.095-.659 2.603.293 3.555l13.714 13.714c1.735 1.735.506 4.7-1.947 4.7h-25.575c-.935 0-1.806.47-2.315 1.254-31.446 48.521-59.601 107.86-59.601 164.794 0 29.718 8.977 57.339 24.366 80.3.159.237.427.379.712.379h29.722c.757 0 1.136.915.601 1.45l-15.899 15.899c-.327.327-.336.857-.018 1.193 23.643 24.994 56.119 41.546 92.433 44.66v-97.557l-63.2-63.199c-4.936-4.936-4.881-12.975.167-17.842 4.955-4.777 12.937-4.41 17.803.457l45.229 45.229v-65.574l-45.246-45.246c-4.936-4.937-4.881-12.975.167-17.842 4.955-4.777 12.937-4.41 17.803.456l27.276 27.276v-83.216c0-6.904 5.597-12.5 12.5-12.5v-82.066c-1.534 0-3.068.597-4.227 1.79z" fill="#93d3a2"/><circle cx="221.131" cy="100.882" r="7.5"/><circle cx="264.202" cy="175.553" r="7.5"/><circle cx="291.824" cy="257.834" r="7.5"/><path d="m469.755 220.041c-8.763 0-16.271 5.477-19.28 13.187h-22.907l-31.768-31.768c-1.406-1.407-3.314-2.197-5.303-2.197h-22.703l26.904-26.904h29.402c3.01 7.71 10.517 13.187 19.28 13.187 11.407 0 20.687-9.28 20.687-20.687s-9.28-20.688-20.687-20.688c-8.763 0-16.271 5.477-19.281 13.188h-32.508c-1.989 0-3.897.79-5.303 2.197l-39.707 39.707h-35.249c-12.513-36.052-32.08-71.22-53.266-102.598h45.144c1.989 0 3.897-.79 5.303-2.197l6.981-6.981 25.716 25.716c1.406 1.407 3.314 2.197 5.303 2.197h44.806c3.01 7.711 10.517 13.188 19.281 13.188 11.407 0 20.687-9.28 20.687-20.688s-9.28-20.688-20.687-20.688c-8.763 0-16.271 5.477-19.281 13.188h-41.7l-23.52-23.52 4.784-4.784h27.603c3.01 7.71 10.517 13.187 19.28 13.187 11.407 0 20.687-9.28 20.687-20.687s-9.28-20.688-20.687-20.688c-8.763 0-16.271 5.477-19.281 13.188h-30.709c-1.989 0-3.897.79-5.303 2.197l-22.372 22.372h-4.641v-31.754l6.104-6.104c2.55 1.126 5.368 1.752 8.329 1.752 11.407 0 20.688-9.28 20.688-20.687s-9.28-20.688-20.688-20.688c-11.407 0-20.687 9.28-20.687 20.688 0 2.961.626 5.779 1.752 8.329l-8.301 8.301c-1.407 1.406-2.197 3.314-2.197 5.303v34.861h-32.841c-20.117-28.045-43.709-56.161-64.542-77.603-2.543-2.62-5.954-4.063-9.603-4.063s-7.061 1.443-9.607 4.063c-5.318 5.473-16.228 17.003-29.548 32.734-2.677 3.161-2.284 7.894.877 10.57s7.893 2.284 10.57-.877c7.817-9.231 14.773-16.972 20.208-22.84v59.863c-7.139 2.887-12.5 9.949-12.5 18.552v65.109l-14.473-14.473c-7.818-7.818-20.519-8.065-28.312-.552-3.898 3.758-6.072 8.808-6.121 14.218-.049 5.412 2.03 10.499 5.857 14.326l43.049 43.049v44.361l-32.426-32.426c-7.817-7.818-20.518-8.066-28.312-.553-3.898 3.758-6.072 8.808-6.122 14.219-.05 5.412 2.03 10.5 5.857 14.326l61.003 61.002v86.033c-28.163-4.129-54.333-16.974-74.936-36.807l11.224-11.224c2.396-2.396 3.107-5.968 1.81-9.1s-4.325-5.154-7.714-5.154h-26.124c-13.866-21.877-21.176-47.1-21.176-73.179 0-46.29 19.174-99.621 56.997-158.548h22.993c4.162 0 7.88-2.484 9.473-6.33s.72-8.231-2.223-11.174l-10.863-10.864c3.426-4.73 6.977-9.499 10.586-14.217 2.517-3.29 1.89-7.997-1.4-10.514-3.29-2.516-7.996-1.891-10.514 1.4-4.538 5.932-8.985 11.943-13.219 17.865-2.93 4.098-2.473 9.658 1.09 13.222l5.611 5.611h-14.116c-3.493 0-6.711 1.748-8.608 4.675-40.349 62.256-60.807 119.074-60.807 168.873 0 30.242 8.865 59.453 25.636 84.476 1.554 2.319 4.149 3.704 6.943 3.704h13.666l-4.546 4.546c-3.223 3.223-3.294 8.341-.164 11.65 24.061 25.437 55.938 41.693 90.381 46.233v22.901c0 4.142 3.358 7.5 7.5 7.5s7.5-3.358 7.5-7.5c0-201.683 0-94.123 0-127.186 0-1.989-.79-3.897-2.197-5.303l-63.2-63.199c-1.975-1.975-1.955-5.187.069-7.139 1.914-1.845 5.253-1.68 7.294.36l45.229 45.229c2.146 2.146 5.373 2.787 8.173 1.626 2.803-1.161 4.63-3.896 4.63-6.929v-65.574c0-1.989-.79-3.897-2.197-5.303l-45.246-45.246c-1.963-1.962-1.968-5.176.069-7.139 1.913-1.845 5.253-1.68 7.294.36l27.276 27.276c2.146 2.146 5.373 2.787 8.173 1.626 2.803-1.161 4.63-3.896 4.63-6.929v-83.216c0-2.764 2.236-5 5-5 2.775 0 5 2.563 5 5.415v394.519h-10v-13.247c0-4.142-3.358-7.5-7.5-7.5s-7.5 3.358-7.5 7.5v16.128c0 6.682 5.437 12.119 12.119 12.119h15.763c6.682 0 12.118-5.437 12.118-12.119v-74.03c40.25-5.298 75.787-26.342 99.948-57.372h33.769l15.203 15.203v47.635c0 1.989.79 3.897 2.197 5.303l24.697 24.697c-1.126 2.55-1.752 5.368-1.752 8.329 0 11.407 9.28 20.688 20.688 20.688s20.688-9.28 20.688-20.688-9.28-20.688-20.688-20.688c-2.962 0-5.78.626-8.329 1.752l-22.501-22.501v-29.529l6.793 6.793c1.406 1.407 3.314 2.197 5.303 2.197h31.431c3.01 7.711 10.517 13.188 19.281 13.188 11.407 0 20.687-9.28 20.687-20.688 0-11.407-9.28-20.687-20.687-20.687-8.763 0-16.271 5.477-19.28 13.187h-28.325c-7.919-7.918-14.996-14.996-24.193-24.192h48.485c1.989 0 3.897-.79 5.303-2.197l19.805-19.805c2.55 1.126 5.368 1.752 8.329 1.752 11.407 0 20.687-9.28 20.687-20.687s-9.28-20.688-20.687-20.688-20.688 9.28-20.688 20.688c0 2.961.626 5.779 1.752 8.329l-17.608 17.608h-90.061c14.2-23.597 21.668-50.57 21.668-78.236 0-20.242-3.448-40.755-9.284-60.979h43.135v30.57c0 1.989.79 3.897 2.197 5.303l17.467 17.467c-1.126 2.55-1.752 5.368-1.752 8.329 0 11.407 9.28 20.688 20.687 20.688s20.688-9.28 20.688-20.688-9.28-20.688-20.688-20.688c-2.962 0-5.78.626-8.329 1.752l-15.27-15.27v-27.464h13.15l31.768 31.768c1.406 1.407 3.314 2.197 5.303 2.197h26.013c3.01 7.711 10.517 13.188 19.281 13.188 11.407 0 20.688-9.28 20.688-20.688.002-11.403-9.278-20.683-20.685-20.683zm-26.375-60.869c3.136 0 5.687 2.551 5.687 5.688 0 3.136-2.551 5.687-5.687 5.687s-5.688-2.551-5.688-5.687c.001-3.136 2.552-5.688 5.688-5.688zm-32.778-56.959c3.136 0 5.687 2.551 5.687 5.688s-2.551 5.688-5.687 5.688-5.688-2.551-5.688-5.688 2.551-5.688 5.688-5.688zm-32.833-43.303c3.136 0 5.687 2.551 5.687 5.688 0 3.136-2.551 5.687-5.687 5.687s-5.688-2.551-5.688-5.687c.001-3.137 2.552-5.688 5.688-5.688zm-67.872-39.726c3.136 0 5.688 2.551 5.688 5.688 0 3.136-2.551 5.687-5.688 5.687-3.136 0-5.687-2.551-5.687-5.687 0-3.137 2.551-5.688 5.687-5.688zm84.014 450.464c0 3.136-2.551 5.688-5.688 5.688s-5.688-2.551-5.688-5.688 2.551-5.688 5.688-5.688 5.688 2.552 5.688 5.688zm26.29-75.163c3.136 0 5.687 2.551 5.687 5.687s-2.551 5.688-5.687 5.688-5.688-2.551-5.688-5.688c.001-3.136 2.552-5.687 5.688-5.687zm10.125-72.63c3.136 0 5.687 2.551 5.687 5.688 0 3.136-2.551 5.687-5.687 5.687s-5.688-2.551-5.688-5.687c.001-3.137 2.552-5.688 5.688-5.688zm-120.334-36.264-116.518 116.519v-35.173l58.783-58.783c2.727 1.243 5.754 1.936 8.941 1.936 11.926 0 21.629-9.703 21.629-21.629s-9.703-21.629-21.629-21.629-21.629 9.703-21.629 21.629c0 3.265.727 6.363 2.028 9.141l-48.122 48.122v-36.785l58.404-58.404c2.929-2.929 2.929-7.678 0-10.606-2.929-2.929-7.678-2.929-10.606 0l-47.797 47.797v-36.036l29.857-29.857c2.752 1.272 5.815 1.982 9.041 1.982 11.926 0 21.629-9.703 21.629-21.629s-9.703-21.629-21.629-21.629-21.629 9.703-21.629 21.629c0 3.226.71 6.289 1.982 9.041l-19.25 19.25v-35.921l66.84-66.839c11.824 19.416 22.797 40.259 31.44 61.731l-25.757 25.752c-2.929 2.929-2.929 7.678 0 10.606 2.929 2.929 7.678 2.929 10.606 0l20.909-20.909c7.754 22.624 12.874 46.522 12.874 70.345 0 3.478-.134 6.929-.397 10.349zm-123.434-198.503 26.368-26.368c13.833 17.201 27.146 35.372 39.2 53.971l-58.652 58.652v-70.862c0-6.107-2.687-11.634-6.916-15.393zm68.01 201.372c0-3.655 2.974-6.629 6.629-6.629s6.629 2.974 6.629 6.629-2.974 6.629-6.629 6.629c-1.755 0-3.353-.686-4.54-1.804-.067-.068-.1-.104-.224-.221-1.154-1.192-1.865-2.816-1.865-4.604zm-28.826-86.274c0-3.655 2.974-6.629 6.629-6.629s6.629 2.974 6.629 6.629-2.974 6.629-6.629 6.629-6.629-2.974-6.629-6.629zm-22.383-153.112-22.385 22.386v-47.81c5.964 6.44 13.685 15.055 22.385 25.424zm6.093 358.27 96.026-96.026c-12.802 46.15-49.464 83.234-96.026 96.026zm194.075-131.41c0 3.136-2.551 5.688-5.688 5.688-3.136 0-5.687-2.551-5.687-5.688s2.551-5.688 5.687-5.688c3.137 0 5.688 2.551 5.688 5.688zm66.228-29.518c-3.136 0-5.688-2.551-5.688-5.688 0-3.136 2.551-5.687 5.688-5.687s5.688 2.551 5.688 5.687c-.001 3.136-2.552 5.688-5.688 5.688z"/></g></svg>