<svg id="color_line" height="512" viewBox="0 0 74 74" width="512" xmlns="http://www.w3.org/2000/svg" data-name="color line"><circle cx="37" cy="36.631" fill="#89c5cd" r="33.631"/><path d="m70.63 36.63a33.606 33.606 0 0 1 -15.46 28.3 33.63 33.63 0 0 0 -39.08-54.63 33.621 33.621 0 0 1 54.54 26.33z" fill="#6eaaad"/><path d="m37 70.546a.5.5 0 0 1 -.5-.5v-67.046a.5.5 0 0 1 1 0v67.046a.5.5 0 0 1 -.5.5z" fill="#323c6b"/><path d="m65.457 19.776h-56.914a.5.5 0 0 1 0-1h56.914a.5.5 0 0 1 0 1z" fill="#323c6b"/><path d="m46.2 69.076a23.556 23.556 0 0 0 2.59-.963 12.228 12.228 0 0 1 1.935-20.184 12.248 12.248 0 0 0 -4.525 21.147z" fill="#6eaaad"/><g fill="#323c6b"><path d="m20.5 69.8a.5.5 0 0 1 -.226-.054 37.283 37.283 0 0 1 -8.987-6.387.5.5 0 1 1 .693-.721 36.269 36.269 0 0 0 8.747 6.216.5.5 0 0 1 -.227.946z"/><path d="m8.914 60.583a.5.5 0 0 1 -.384-.183l-.213-.253c-.166-.195-.332-.391-.49-.592a.5.5 0 1 1 .786-.618c.15.191.309.377.466.563l.219.259a.5.5 0 0 1 -.383.821z"/><path d="m60.282 9.025a.5.5 0 0 1 -.3-.1q-.566-.432-1.151-.842a.5.5 0 0 1 .575-.818q.6.422 1.182.866a.5.5 0 0 1 -.3.9z"/><path d="m69.085 19.516a.5.5 0 0 1 -.438-.259 36.2 36.2 0 0 0 -6.824-8.843.5.5 0 1 1 .688-.726 37.2 37.2 0 0 1 7.013 9.086.5.5 0 0 1 -.437.741z"/><path d="m45.23 54.27h-36.687a.5.5 0 0 1 0-1h36.687a.5.5 0 0 1 0 1z"/><path d="m37 70.762c-10.023 0-18.178-15.311-18.178-34.131s8.155-34.131 18.178-34.131 18.178 15.311 18.178 34.131-8.155 34.131-18.178 34.131zm0-67.262c-9.472 0-17.178 14.862-17.178 33.131s7.706 33.131 17.178 33.131 17.178-14.862 17.178-33.131-7.706-33.131-17.178-33.131z"/><path d="m37 70.762a34.131 34.131 0 1 1 34.131-34.131 34.17 34.17 0 0 1 -34.131 34.131zm0-67.262a33.131 33.131 0 1 0 33.131 33.131 33.168 33.168 0 0 0 -33.131-33.131z"/></g><circle cx="56.601" cy="58.697" fill="#e1e6e9" r="12.267"/><path d="m68.867 58.7a12.266 12.266 0 0 1 -4.507 9.5 12.273 12.273 0 0 0 -17.3-17.222 12.271 12.271 0 0 1 21.807 7.722z" fill="#d5d6db"/><path d="m62.968 61.47c-.757.759-2.912 1-3.591-.582-.742-1.72.493-3.723 3.239-4.009a3.932 3.932 0 0 1 3.751 1.892c-1.667.082-2.641 1.94-3.399 2.699z" fill="#6fc666"/><path d="m61.312 62.561a3.135 3.135 0 0 1 -.586-.054 2.39 2.39 0 0 1 -1.808-1.421 3.007 3.007 0 0 1 .17-2.737 4.635 4.635 0 0 1 7.719.184.5.5 0 0 1 -.415.737c-1.046.052-1.823 1.032-2.448 1.82a9.071 9.071 0 0 1 -.622.733 2.912 2.912 0 0 1 -2.01.738zm1.723-5.2a3.5 3.5 0 0 0 -.367.019 3.453 3.453 0 0 0 -2.717 1.479 1.992 1.992 0 0 0 -.114 1.836 1.381 1.381 0 0 0 1.077.834 2.067 2.067 0 0 0 1.7-.408 7.944 7.944 0 0 0 .546-.647 5.8 5.8 0 0 1 2.34-2.025 3.4 3.4 0 0 0 -2.465-1.092z" fill="#323c6b"/><path d="m57.413 64.02a.5.5 0 0 1 -.449-.718c1.966-4.056 4.986-4.646 5.114-4.669a.5.5 0 0 1 .181.984c-.109.021-2.664.55-4.4 4.122a.5.5 0 0 1 -.446.281z" fill="#323c6b"/><path d="m51.5 59.428c.787 1.2 3.548 2.1 4.868.212 1.44-2.054.16-4.994-3.363-6.115a4.9 4.9 0 0 0 -5.228 1.441c2.172.561 2.94 3.26 3.723 4.462z" fill="#6fc666"/><path d="m54.223 61.227h-.056a3.947 3.947 0 0 1 -3.081-1.527 11.678 11.678 0 0 1 -.607-1.112c-.62-1.233-1.392-2.769-2.825-3.14a.5.5 0 0 1 -.257-.806 5.363 5.363 0 0 1 5.763-1.6 6 6 0 0 1 4.084 3.544 3.644 3.644 0 0 1 -.464 3.334 3.027 3.027 0 0 1 -2.557 1.307zm-5.537-6.443a7.176 7.176 0 0 1 2.687 3.356 11.257 11.257 0 0 0 .549 1.014 2.965 2.965 0 0 0 2.259 1.073 2.005 2.005 0 0 0 1.78-.874 2.669 2.669 0 0 0 .336-2.441 5.031 5.031 0 0 0 -3.44-2.912 4.326 4.326 0 0 0 -4.171.784z" fill="#323c6b"/><path d="m57.438 66.651a.5.5 0 0 1 -.5-.5v-.564a8.262 8.262 0 0 0 -.8-3.549 18.323 18.323 0 0 0 -3.147-4.638.5.5 0 1 1 .725-.689 19.351 19.351 0 0 1 3.32 4.9 9.262 9.262 0 0 1 .9 3.981v.564a.5.5 0 0 1 -.498.495z" fill="#323c6b"/><path d="m56.6 71.464a12.767 12.767 0 1 1 12.769-12.764 12.782 12.782 0 0 1 -12.769 12.764zm0-24.535a11.767 11.767 0 1 0 11.769 11.771 11.781 11.781 0 0 0 -11.769-11.771z" fill="#323c6b"/><path d="m23.819 41.1a.6.6 0 0 1 -.6-.564c-.08-1.333-.121-2.647-.121-3.905a63.474 63.474 0 0 1 .524-8.041.6.6 0 1 1 1.19.152 62.169 62.169 0 0 0 -.515 7.888c0 1.234.04 2.524.119 3.833a.6.6 0 0 1 -.563.635z" fill="#fff"/><path d="m24.732 25.975a.62.62 0 0 1 -.1-.009.6.6 0 0 1 -.489-.694l.079-.47c.054-.323.107-.647.17-.962a.6.6 0 0 1 1.177.235c-.06.3-.111.612-.163.923l-.081.479a.6.6 0 0 1 -.593.498z" fill="#fff"/><path d="m70.523 37.023h-67.046a.5.5 0 0 1 0-1h67.046a.5.5 0 0 1 0 1z" fill="#323c6b"/></svg>