<svg viewBox="0 -3 512.00045 512" xmlns="http://www.w3.org/2000/svg"><path d="m209.738281 471.511719c-102.367187-21.589844-176.667969-113.316407-176.667969-218.101563 0-88.171875 52.617188-167.089844 130.292969-202.761718 1.347657-.617188 2.945313.007812 3.53125 1.367187l7.617188 17.65625-.464844-.867187c1.847656 4.324218 7.722656 4.953124 10.441406 1.117187l36.289063-51.207031c2.59375-3.65625.410156-8.765625-4.023438-9.425782l-62.078125-9.2187495c-4.652343-.6914065-8.261719 3.9804685-6.414062 8.3085935l3.597656 8.433594c.542969 1.269531-.035156 2.726562-1.289063 3.292969-154.21875 69.914062-198.636718 266.363281-92.605468 395.589843 36.882812 44.945313 88.359375 76.273438 144.941406 88.210938 1.152344.242188 2.300781.359375 3.433594.359375 7.660156 0 14.535156-5.347656 16.179687-13.140625 1.886719-8.945312-3.835937-17.726562-12.78125-19.613281zm0 0" fill="#b3dbf4"/><path d="m302.226562 34.035156c102.367188 21.589844 176.667969 113.3125 176.667969 218.097656 0 88.175782-52.617187 167.089844-130.292969 202.761719-1.347656.617188-2.941406-.003906-3.53125-1.363281l-7.617187-17.660156.464844.871094c-1.847657-4.328126-7.71875-4.957032-10.441407-1.117188l-36.289062 51.203125c-2.589844 3.660156-.410156 8.765625 4.023438 9.425781l62.078124 9.222656c4.652344.691407 8.261719-3.984374 6.417969-8.3125l-3.601562-8.433593c-.542969-1.265625.035156-2.722657 1.289062-3.292969 35.632813-16.152344 67.5-40.425781 92.605469-71.019531 37.402344-45.585938 58-103.21875 58-162.285157 0-59.066406-20.597656-116.699218-58-162.28125-36.886719-44.949218-88.359375-76.277343-144.945312-88.210937-8.945313-1.886719-17.722657 3.835937-19.609376 12.78125-1.886718 8.945313 3.835938 17.726563 12.78125 19.613281zm0 0" fill="#b3dbf4"/><g fill="#8fc8e2"><path d="m78.574219 415.695312c-106.089844-129.292968-61.53125-325.714843 92.601562-395.585937 1.253907-.570313 1.828125-2.027344 1.289063-3.292969l-3.601563-8.4375c-.929687-2.183594-.46875-4.453125.8125-6.082031l-15.003906-2.2265625c-4.652344-.6914065-8.257813 3.9843755-6.414063 8.3085935l3.601563 8.4375c.539063 1.265625-.035156 2.722656-1.289063 3.292969-154.21875 69.910156-198.636718 266.359375-92.605468 395.585937 36.882812 44.945313 88.359375 76.273438 144.941406 88.210938 1.152344.242188 2.300781.359375 3.433594.359375 3.046875 0 5.960937-.859375 8.484375-2.367187-53.152344-13.199219-101.265625-43.570313-136.25-86.203126zm0 0"/><path d="m174.511719 69.675781-.464844-.871093c1.847656 4.324218 7.71875 4.953124 10.441406 1.117187l6.671875-9.417969-4.75-10.585937c-1.433594-3.203125-5.183594-4.652344-8.398437-3.242188-3.765625 1.648438-7.464844 3.324219-11.117188 5.339844zm0 0"/><path d="m299.03125 33.015625c3.28125 1.425781 4.921875 1 17.402344 4.511719 94.816406 26.683594 162.460937 114.589844 162.460937 214.605468 0 88.175782-52.617187 167.09375-130.292969 202.765626l1.324219 2.992187c2.253907 5.097656 8.324219 7.308594 13.296875 4.792969 74.898438-37.875 136.277344-122.773438 136.277344-208.933594 0-105.460938-74.300781-197.773438-176.667969-219.503906-14.75-3.132813-17.914062-22.863282-5.066406-30.589844-3.257813-.8125-6.316406-1.511719-8.707031-2.015625-8.910156-1.875-17.714844 3.800781-19.613282 12.78125-1.652343 7.832031 2.527344 15.527344 9.585938 18.59375zm0 0"/><path d="m311.796875 489.953125 30.378906-43.136719-4.722656-10.945312.464844.867187c-1.847657-4.324219-7.71875-4.953125-10.441407-1.113281l-36.289062 51.203125c-2.589844 3.660156-.410156 8.765625 4.023438 9.425781l19.46875 2.890625c-3.644532-1.296875-5.242188-5.839843-2.882813-9.191406zm0 0"/></g><path d="m265.296875 115.296875c-5.710937-3.449219-12.917969-3.449219-18.628906 0-39.378907 23.78125-65.714844 66.984375-65.714844 116.34375s26.332031 92.5625 65.714844 116.339844c5.710937 3.449219 12.917969 3.449219 18.628906 0 39.378906-23.777344 65.714844-66.980469 65.714844-116.339844s-26.335938-92.5625-65.714844-116.34375zm0 0" fill="#a0d92a"/><path d="m201.558594 231.640625c0-48.941406 25.898437-91.820313 64.726562-115.722656-.328125-.207031-.652344-.417969-.988281-.621094-5.710937-3.445313-12.917969-3.445313-18.628906 0-39.378907 23.78125-65.714844 66.984375-65.714844 116.34375s26.335937 92.5625 65.714844 116.34375c5.710937 3.445313 12.917969 3.445313 18.628906 0 .335937-.203125.660156-.414063.988281-.621094-38.828125-23.902343-64.726562-66.78125-64.726562-115.722656zm0 0" fill="#74c432"/><path d="m331.007812 231.847656-67.296874 42.722656v-52.144531l56.472656-43.980469c-2.070313-4.859374-4.414063-9.578124-7.015625-14.125l-49.457031 38.519532v-88.382813c-4.882813-2.3125-10.578126-2.3125-15.457032 0v88.640625l-49.558594-38.597656c-2.597656 4.554688-4.933593 9.273438-7 14.136719l56.558594 44.050781v52.09375l-67.296875-42.71875c.019531 6.519531.503907 12.929688 1.414063 19.203125l65.882812 41.824219v99.367187c0 4.269531 3.460938 7.726563 7.726563 7.726563s7.726562-3.457032 7.726562-7.726563v-99.582031l65.921875-41.84375c.898438-6.269531 1.371094-12.671875 1.378906-19.183594zm0 0" fill="#74c432"/></svg>