<svg id="Flat" height="512" viewBox="0 0 512 512" width="512" xmlns="http://www.w3.org/2000/svg"><path d="m440 208c0-101.62-82.379-184-184-184a184.027 184.027 0 0 0 -80 349.742l59.418 106.077a16 16 0 0 0 13.959 8.181h13.246a16 16 0 0 0 13.959-8.181l59.418-106.077a184.01 184.01 0 0 0 104-165.742z" fill="#eb423f"/><circle cx="256" cy="208" fill="#e9eef2" r="136"/><path d="m232 120h-32v176h32v-80h48a32 32 0 0 0 32-32v-32a32 32 0 0 0 -32-32z" fill="#3397e8"/><path d="m264 184h-32v-32h32a16 16 0 0 1 16 16 16 16 0 0 1 -16 16z" fill="#e9eef2"/></svg>