<svg enable-background="new 0 0 140 140" height="512" viewBox="0 0 140 140" width="512" xmlns="http://www.w3.org/2000/svg"><circle cx="70" cy="70" fill="#dbd8dd" r="64"/><path d="m134.0000153 69.9998016c0-1.3491211-.0557861-2.6850586-.1380615-4.0136719l-29.5746536-29.5747032-.0037842.0039062c-.1558838-.2094727-.3236084-.4130859-.513855-.6035156-1.6900024-1.6899414-4.2199707-2.0195312-6.25-1.0097656-.4400024-.3300781-.9899902-.6201172-1.6399536-.8598633 0 0-4.1200562-2.2602539-8.3300171 2.7700195 0 0-4.5200195-2.9799805-7.5100098 1.75l-1.8499756 3.699707s-3.2600098-3.159668-6.9700317 1.25c0 0-4.9099731 6.6401367-5.2600098 9.6699219 0 0-6.4299889-.7197266-8.2099571 3.7402344 0 0-5.7200317 11.3598595-5.3800049 20.6201134.2581787 6.8383789-10.1651001 17.0820312-15.65448 21.9887695l-3.2855225 2.8212891 31.5317345 31.5317383c1.6643677.1298828 3.3409424.2158203 5.0385742.2158203 35.3463135 0 64.0000077-28.6538086 64.0000077-64z" opacity=".1"/><path d="m86.9168854 74.0428085c3.0321655-.35672 9.6742783-5.258461 9.6742783-5.258461 4.4100494-3.7135315 1.2443924-6.9782333 1.2443924-6.9782333l3.7008591-1.8504105c4.7288589-2.9812126 1.7476883-7.5046539 1.7476883-7.5046539 5.0372314-4.2147751 2.7747345-8.3278084 2.7747345-8.3278084-.3342438-.9069595-.765213-1.592247-1.2465591-2.1121674.9808807-2.0193329.638176-4.5195198-1.0384903-6.1961861-1.6918335-1.6918297-4.2225418-2.0268097-6.251152-1.0130386-.4469833-.3257065-.9887619-.6183968-1.6458969-.8607063 0 0-4.1129913-2.262455-8.3278046 2.7747383 0 0-4.5234451-2.9811707-7.5046158 1.7477264l-1.8504486 3.7008209s-3.2646637-3.1656189-6.9782333 1.2443924c0 0-4.901741 6.6421089-5.2584229 9.6743126 0 0-6.430687-.7228355-8.209713 3.7411118 0 0-5.7179451 11.357563-5.3752823 20.621418.3428267 9.2637024-18.9377252 24.8033066-18.9377252 24.8033066l2.1582603 2.1582565 2.1582603 2.1582642s15.5396042-19.2805557 24.8033028-18.9377289c9.2638588.3426666 20.6214638-5.3752365 20.6214638-5.3752365 4.4639435-1.7790298 3.7411042-8.2097168 3.7411042-8.2097168z" fill="#4abba4"/><path d="m79.038353 68.6944122c1.5095825-.3644867 3.0095673-.7696228 4.4929581-1.2426758 1.4855576-.465004 2.9591446-.97892 4.3997574-1.6300888-1.5790482.0763321-3.1250839.2899551-4.6593094.5526505-1.5362625.2544479-3.0559387.5768051-4.565979.9398575-1.5091705.3665237-3.0092392.7712555-4.4924698 1.2448044-.613327.1921234-1.2240448.3960266-1.8318558.610672 3.3731079-3.4288483 6.7499008-6.8543434 10.0750809-10.3311234 1.0960236-.1062775 2.1797104-.2638016 3.2568588-.4477997 1.5363922-.253994 3.0561523-.5769234 4.566597-.9379311 1.5095825-.3644867 3.0095673-.7696266 4.4929581-1.2426796 1.4855576-.465004 2.9591446-.9789162 4.3997574-1.630085-1.5790482.0763283-3.1250839.2899513-4.6593094.5526505-1.5362701.2544441-3.0559464.5768013-4.565979.9398537-1.5091782.3665276-3.0092392.7712593-4.4924698 1.2448044-.7619019.2387123-1.5202942.4907455-2.273201.7665596.0930786-.0978241.1877136-.1940918.2807159-.291996l7.334465-7.7894974c2.3850403-2.6559525 4.8263855-5.2559242 7.1621933-7.9614449-2.7055206 2.335804-5.3055344 4.7771111-7.9614868 7.1621552l-7.7894516 7.3345032c-.097908.0930023-.1940918.1873932-.2919159.2804756.2756882-.7527122.5278854-1.511261.7664795-2.2729607.4735413-1.4832306.878273-2.9832916 1.2447968-4.4924698.36306-1.5100327.6854172-3.0297127.9398575-4.565979.2626953-1.5342255.4763184-3.0802574.5526505-4.6593094-.6511688 1.4406128-1.1650848 2.9141998-1.6300812 4.3997574-.473053 1.4833908-.8781967 2.9833755-1.2426834 4.4929581-.3610077 1.5104446-.6839371 3.0302048-.9379349 4.5665932-.1839981 1.0771484-.3415146 2.1608353-.4478378 3.2568207-3.4767761 3.3251839-6.9021072 6.7018051-10.3311234 10.0750809.2147675-.608017.4185867-1.218483.6107178-1.8318176.4735413-1.4832306.878273-2.9832916 1.2448044-4.4924698.3630524-1.5100327.6854095-3.0297089.9398499-4.565979.2627029-1.5342255.476326-3.0802574.5526505-4.6593056-.6511612 1.440609-1.1650772 2.914196-1.6300812 4.3997536-.473053 1.4833946-.8781967 2.9833755-1.2426758 4.4929619-.3610153 1.5104408-.6839447 3.030201-.9377747 4.5664253-.1669998.976799-.3098068 1.9594727-.4150314 2.9509735-1.0174026.9998398-2.0346527 1.9995193-3.0558624 2.995224-1.8085632 1.8581772-3.6274719 3.7056885-5.4464188 5.5534821.2206497-.6227264.4295349-1.2483978.6264038-1.8769302.4735451-1.4832306.8782768-2.9832916 1.2448044-4.4924698.3630524-1.5100327.6854095-3.0297089.9398575-4.565979.2626953-1.5342255.4763184-3.0802574.5526505-4.6593094-.6511688 1.4406128-1.1650848 2.9141998-1.6300888 4.3997574-.473053 1.4833908-.8781929 2.9833755-1.2426796 4.4929581-.3610077 1.5104446-.6839371 3.0302048-.9379311 4.566597-.1706772.9989395-.3165131 2.0040894-.4223022 3.0188828-2.8921738 2.9392471-5.7797699 5.8833923-8.6180077 8.8768997l-7.3350754 7.788887c-2.3861847 2.6551361-4.8276558 5.254982-7.1646042 7.9593582 2.7042923-2.3370285 5.3041801-4.7784576 7.9593163-7.1646423l7.788887-7.335083c2.9935493-2.8381882 5.9376984-5.7257843 8.8769035-8.6180038 1.0147934-.1057892 2.0199852-.2515793 3.0189247-.4222565 1.5363922-.2539978 3.0561447-.5769272 4.5665894-.9379349 1.5095901-.3644867 3.0095673-.7696304 4.4929657-1.2426834 1.4855576-.4649963 2.9591446-.9789124 4.3997498-1.6300812-1.5790482.0763321-3.1250839.2899551-4.6593018.5526505-1.5362701.2544403-3.0559464.5767975-4.5659866.9398575-1.5091705.3665237-3.0092392.7712555-4.4924698 1.2447968-.6285248.1968765-1.2542801.4056778-1.8769684.6263657 1.8476334-1.818779 3.6953049-3.6378479 5.5534821-5.4464188.9956665-1.0212479 1.9953842-2.0384521 2.9950562-3.0557022.9916687-.1053772 1.9743881-.2481537 2.9511795-.4151535 1.5362241-.2538303 3.0559842-.5767597 4.5664289-.9377674z" fill="#338270"/></svg>