<svg id="Layer_1" enable-background="new 0 0 512 512" height="512" viewBox="0 0 512 512" width="512" xmlns="http://www.w3.org/2000/svg"><g><g><g><path d="m166.449 232.772c30.548-32.431 66.322-38.532 113.75-67.619 40.955-25.117 61.866-63.793 61.866-63.793s72.517 155.661-9.814 248.989c-37.122 42.081-99.744 51.488-150.206 18.652-49.827-32.421-54.769-94.64-15.596-136.229z" fill="#9ee8c0"/><path d="m342.065 101.361s-9.028 16.694-26.834 35.269c16.198 51.43 34.978 148.02-22.98 213.72-17.381 19.703-40.352 32.242-65.047 36.637 38.874 6.849 78.487-6.529 105.047-36.637 82.331-93.329 9.814-248.989 9.814-248.989z" fill="#8adeb0"/><path d="m147.637 400.737c5.94-29.696 21.669-53.547 44.741-72.811 21.666-18.089 46.679-31.672 69.044-48.841 13.561-10.411 26.163-21.897 36.678-35.432 2.503-3.222 3.083-7.456 0-10.607-2.561-2.618-8.126-3.194-10.607 0-36.643 47.171-99.06 65.065-133.576 114.101-10.421 14.805-17.203 31.896-20.745 49.602-1.885 9.428 12.57 13.461 14.465 3.988z" fill="#7ccfa1"/></g></g><path d="m256 512c-68.38 0-132.667-26.629-181.02-74.98-48.351-48.353-74.98-112.64-74.98-181.02s26.629-132.667 74.98-181.02c48.353-48.351 112.64-74.98 181.02-74.98s132.667 26.629 181.02 74.98c48.351 48.353 74.98 112.64 74.98 181.02s-26.629 132.667-74.98 181.02c-48.353 48.351-112.64 74.98-181.02 74.98zm0-497c-64.374 0-124.894 25.068-170.413 70.587s-70.587 106.039-70.587 170.413 25.068 124.894 70.587 170.413 106.039 70.587 170.413 70.587 124.894-25.068 170.413-70.587 70.587-106.039 70.587-170.413-25.068-124.894-70.587-170.413-106.039-70.587-170.413-70.587z" fill="#9ee8c0"/></g></svg>