<?xml version="1.0" encoding="iso-8859-1"?>
<!-- Generator: Adobe Illustrator 22.0.0, SVG Export Plug-In . SVG Version: 6.00 Build 0)  -->
<svg xmlns="http://www.w3.org/2000/svg" xmlns:xlink="http://www.w3.org/1999/xlink" version="1.1" x="0px" y="0px" viewBox="0 0 50 58" style="enable-background:new 0 0 50 58;" xml:space="preserve" width="512" height="512">
<g id="_x31_8-Parking_Spot">
	<path style="fill:#AFB6BB;" d="M25,25c-0.681,0-1.345-0.065-2-0.159V41h4V24.841C26.345,24.935,25.681,25,25,25z"/>
	<path style="fill:#61B872;" d="M3.014,50.137C3.012,50.091,3,50.047,3,50c0-2.209,1.791-4,4-4c0.353,0,0.689,0.06,1.015,0.146   C8.013,46.096,8,46.05,8,46c0-2.209,1.791-4,4-4c1.233,0,2.322,0.57,3.056,1.447C15.327,41.502,16.98,40,19,40   c0.732,0,1.412,0.203,2,0.547V41h1v17h-1H4c-2.209,0-4-1.791-4-4C0,52.133,1.284,50.578,3.014,50.137z"/>
	<path style="fill:#61B872;" d="M46.986,50.137C46.988,50.091,47,50.047,47,50c0-2.209-1.791-4-4-4c-0.353,0-0.689,0.06-1.015,0.146   C41.987,46.096,42,46.05,42,46c0-2.209-1.791-4-4-4c-1.233,0-2.322,0.57-3.056,1.447C34.673,41.502,33.02,40,31,40   c-0.732,0-1.412,0.203-2,0.547V41h-1v17h1h17c2.209,0,4-1.791,4-4C50,52.133,48.716,50.578,46.986,50.137z"/>
	<circle style="fill:#366DB6;" cx="25" cy="14" r="14"/>
	<circle style="fill:#FFFFFF;" cx="25" cy="14" r="10"/>
	<rect x="21" y="39" style="fill:#E7ECED;" width="8" height="16"/>
	<path style="fill:#AFB6BB;" d="M25,51c-0.552,0-1-0.448-1-1v-7c0-0.552,0.448-1,1-1s1,0.448,1,1v7C26,50.552,25.552,51,25,51z"/>
	<path style="fill:#28384C;" d="M22,20c-0.552,0-1-0.448-1-1v-7c0-0.552,0.448-1,1-1s1,0.448,1,1v7C23,19.552,22.552,20,22,20z"/>
	<path style="fill:#28384C;" d="M26,16h-4c-0.552,0-1-0.448-1-1V9c0-0.552,0.448-1,1-1h4c2.206,0,4,1.794,4,4S28.206,16,26,16z    M23,14h3c1.103,0,2-0.897,2-2s-0.897-2-2-2h-3V14z"/>
	<path style="fill:#3D6F44;" d="M7,54c-0.552,0-1-0.448-1-1c0-1.654,1.346-3,3-3c0.552,0,1,0.448,1,1s-0.448,1-1,1   c-0.551,0-1,0.449-1,1C8,53.552,7.552,54,7,54z"/>
	<path style="fill:#3D6F44;" d="M16,51c-0.552,0-1-0.448-1-1c0-0.551-0.449-1-1-1c-0.552,0-1-0.448-1-1s0.448-1,1-1   c1.654,0,3,1.346,3,3C17,50.552,16.552,51,16,51z"/>
	<path style="fill:#3D6F44;" d="M43,54c-0.552,0-1-0.448-1-1c0-0.551-0.449-1-1-1c-0.552,0-1-0.448-1-1s0.448-1,1-1   c1.654,0,3,1.346,3,3C44,53.552,43.552,54,43,54z"/>
	<path style="fill:#3D6F44;" d="M34,51c-0.552,0-1-0.448-1-1c0-1.654,1.346-3,3-3c0.552,0,1,0.448,1,1s-0.448,1-1,1   c-0.551,0-1,0.449-1,1C35,50.552,34.552,51,34,51z"/>
	<path style="fill:#AFB6BB;" d="M36,58H14v0c0-2.209,1.791-4,4-4h14C34.209,54,36,55.791,36,58L36,58z"/>
</g>

</svg>
